<svg width="465" height="426" viewBox="0 0 465 426" fill="none" xmlns="http://www.w3.org/2000/svg">
<rect width="465" height="426" fill="#F5F5F5"/>
<rect width="465" height="426" fill="white"/>
<path d="M307.8 258.9C298 268.7 286.5 276.4 273.3 282C260.3 287.6 246.4 290.4 231.6 290.4C216.8 290.4 202.9 287.6 189.9 282C176.9 276.4 165.6 268.7 156 258.9C146.2 249.3 138.5 238 132.9 225C127.3 212 124.5 198.1 124.5 183.3C124.5 168.5 127.3 154.6 132.9 141.6C138.5 128.4 146.2 116.9 156 107.1C165.6 97.5 176.9 89.9 189.9 84.3C202.9 78.5 216.8 75.6 231.6 75.6C246.4 75.6 260.3 78.5 273.3 84.3C286.5 89.9 298 97.5 307.8 107.1C317.4 116.9 325 128.4 330.6 141.6C336.4 154.6 339.3 168.5 339.3 183.3C339.3 198.1 336.4 212 330.6 225C325 238 317.4 249.3 307.8 258.9ZM164.7 250.5C173.1 259.3 183 266.2 194.4 271.2C206 276.2 218.2 278.7 231 278.7C244.2 278.7 256.6 276.2 268.2 271.2C280 266.2 290.3 259.3 299.1 250.5C307.7 241.9 314.5 231.9 319.5 220.5C324.5 208.9 327 196.5 327 183.3C327 170.1 324.5 157.8 319.5 146.4C314.5 134.8 307.7 124.6 299.1 115.8C290.3 107.2 280.1 100.4 268.5 95.4C257.1 90.2 244.8 87.6 231.6 87.6C218.6 87.6 206.3 90.2 194.7 95.4C183.3 100.4 173.3 107.2 164.7 115.8C156.1 124.4 149.3 134.6 144.3 146.4C139.3 158 136.8 170.4 136.8 183.6C136.8 196.6 139.3 208.9 144.3 220.5C149.3 232.1 156.1 242.1 164.7 250.5Z" fill="black"/>
<path d="M259.566 290L231.6 290.4L205.71 277.76H224.988V87.734H205.71L231.6 75.6L269.97 75.8C284.658 75.8 298.53 78.35 311.586 83.45C324.642 88.346 336.066 95.384 345.858 104.564C355.65 113.948 363.402 125.27 369.114 138.53C374.826 151.79 377.682 166.58 377.682 182.9C377.682 194.936 375.54 207.278 371.256 219.926C367.176 232.574 360.444 244.1 351.06 254.504C341.676 264.908 329.436 273.476 314.34 280.208C299.448 286.736 281.19 290 259.566 290ZM237.534 87.734V277.76H264.156C281.088 277.76 295.878 275.108 308.526 269.804C321.378 264.296 331.986 257.054 340.35 248.078C348.714 239.306 354.936 229.31 359.016 218.09C363.3 206.666 365.442 194.936 365.442 182.9C365.442 168.416 362.892 155.36 357.792 143.732C352.896 131.9 346.062 121.802 337.29 113.438C328.518 105.278 318.318 98.954 306.69 94.466C295.266 89.978 283.026 87.734 269.97 87.734H237.534Z" fill="black"/>
</svg>
